<svg width="68" height="68" viewBox="0 0 68 68" fill="none" xmlns="http://www.w3.org/2000/svg">
<path d="M48.756 0C60.282 0 68 8.092 68 20.128V47.9094C68 59.908 60.282 68 48.756 68H19.278C7.752 68 0 59.908 0 47.9094V20.128C0 8.092 7.752 0 19.278 0H48.756ZM48.212 23.8C47.056 22.644 45.152 22.644 43.996 23.8L29.954 37.842L24.004 31.892C22.848 30.736 20.944 30.736 19.788 31.892C18.632 33.048 18.632 34.918 19.788 36.108L27.88 44.166C28.458 44.744 29.206 45.016 29.954 45.016C30.736 45.016 31.484 44.744 32.062 44.166L48.212 28.016C49.368 26.86 49.368 24.99 48.212 23.8Z" fill="#BCE01A"/>
</svg>
