<svg width="45" height="45" viewBox="0 0 45 45" fill="none" xmlns="http://www.w3.org/2000/svg">
<rect width="44.1652" height="44.1566" rx="10.4799" fill="url(#paint0_linear_678_5885)"/>
<path fill-rule="evenodd" clip-rule="evenodd" d="M17.1695 10.4775H26.2463C29.9352 10.4775 32.9363 13.4781 32.9364 17.1663V26.2413C32.9364 29.9295 29.9352 32.9301 26.2463 32.9301H17.1695C13.4806 32.9301 10.4795 29.9295 10.4795 26.2413V17.1663C10.4795 13.4781 13.4806 10.4775 17.1695 10.4775ZM26.2459 30.6714C28.6931 30.6714 30.6768 28.688 30.6768 26.2414V17.1663C30.6768 14.7197 28.6931 12.7363 26.2459 12.7363H17.1691C14.7221 12.7363 12.7383 14.7197 12.7383 17.1663V26.2414C12.7383 28.688 14.7221 30.6714 17.1691 30.6714H26.2459Z" fill="white"/>
<path fill-rule="evenodd" clip-rule="evenodd" d="M15.8994 21.7034C15.8994 18.5015 18.5049 15.8965 21.7076 15.8965C24.9102 15.8965 27.5157 18.5015 27.5157 21.7034C27.5157 24.9055 24.9102 27.5105 21.7076 27.5105C18.5049 27.5105 15.8994 24.9054 15.8994 21.7034ZM18.1582 21.7036C18.1582 23.6633 19.7472 25.2519 21.7072 25.2519C23.6672 25.2519 25.2562 23.6633 25.2562 21.7036C25.2562 19.7439 23.6672 18.1553 21.7072 18.1553C19.7472 18.1553 18.1582 19.7439 18.1582 21.7036Z" fill="white"/>
<path d="M27.5273 17.3319C28.2959 17.3319 28.919 16.7089 28.919 15.9404C28.919 15.1719 28.2959 14.5489 27.5273 14.5489C26.7586 14.5489 26.1355 15.1719 26.1355 15.9404C26.1355 16.7089 26.7586 17.3319 27.5273 17.3319Z" fill="white"/>
<defs>
<linearGradient id="paint0_linear_678_5885" x1="43.9294" y1="44.0282" x2="43.9294" y2="0.342973" gradientUnits="userSpaceOnUse">
<stop stop-color="#E09B3D"/>
<stop offset="0.3" stop-color="#C74C4D"/>
<stop offset="0.6" stop-color="#C21975"/>
<stop offset="1" stop-color="#7024C4"/>
</linearGradient>
</defs>
</svg>
