<svg width="220" height="52" viewBox="0 0 220 52" fill="none" xmlns="http://www.w3.org/2000/svg">
<path fill-rule="evenodd" clip-rule="evenodd" d="M28.4336 14.1077L35.9363 0.53125H50.9282L35.4794 27.5647L27.9082 15.0569L28.4336 14.1077Z" fill="#4B4B4B"/>
<path fill-rule="evenodd" clip-rule="evenodd" d="M48.2825 50.8452H36.2306L27.4465 35.8122L35.2412 22.9142L51.5654 50.8452H48.2825Z" fill="#4B4B4B"/>
<path fill-rule="evenodd" clip-rule="evenodd" d="M218.115 50.8448H187.839V0.53125H201.184V38.231H220V50.8448H218.115Z" fill="#4B4B4B"/>
<path fill-rule="evenodd" clip-rule="evenodd" d="M183.341 50.8448H153.064V0.53125H166.409V38.231H185.226V50.8448H183.341Z" fill="#4B4B4B"/>
<path fill-rule="evenodd" clip-rule="evenodd" d="M145.241 50.8448H133.781V0.53125H147.126V50.8448H145.241Z" fill="#4B4B4B"/>
<path fill-rule="evenodd" clip-rule="evenodd" d="M127.792 50.8448H115.361L104.643 33.104L102.416 35.9133V50.8448H89.0713V0.53125H102.416V16.8761L114.756 0.53125H131.025L113.786 22.2461L131.129 50.8448H127.792Z" fill="#4B4B4B"/>
<path fill-rule="evenodd" clip-rule="evenodd" d="M85.7267 35.7952C85.7267 40.6222 84.0865 44.4448 80.8079 47.2629C77.6175 50.0045 73.5073 51.3767 68.4817 51.3767C65.1498 51.3767 62.0137 50.8575 59.0797 49.8193C56.1404 48.7811 53.4202 47.2256 50.9252 45.158L49.7151 44.1554L55.8047 33.3083L57.5295 34.6403C59.4323 36.1095 61.2933 37.2048 63.1063 37.9242C64.8524 38.616 66.5798 38.9633 68.2823 38.9633C69.0739 38.9633 69.7498 38.8913 70.3054 38.7496C70.8111 38.6179 71.2385 38.4291 71.5813 38.1859C71.8583 37.99 72.0594 37.7639 72.1823 37.5136C72.315 37.243 72.3818 36.8905 72.3818 36.4594C72.3818 36.0862 72.315 35.7569 72.1833 35.4764C72.0435 35.1771 71.8165 34.8914 71.5074 34.6225C71.0907 34.2654 70.4219 33.838 69.503 33.3447C68.5174 32.8157 67.2415 32.213 65.6779 31.5407C64.7143 31.1356 63.8444 30.759 63.0732 30.4126C62.3058 30.0644 61.6095 29.7358 60.9933 29.4277C60.3797 29.1205 59.7494 28.7706 59.1073 28.3814C58.4725 28.0003 57.8323 27.5783 57.1859 27.1198C56.4896 26.6212 55.8841 26.1332 55.3765 25.6541C54.8226 25.1332 54.3481 24.6026 53.9598 24.0665C53.5876 23.5528 53.2386 22.9651 52.9171 22.308C52.6038 21.6678 52.3304 20.9928 52.0988 20.2858C51.8557 19.5414 51.6714 18.7462 51.5513 17.9082C51.431 17.074 51.3704 16.2093 51.3704 15.3154C51.3704 13.0501 51.7694 10.9834 52.5646 9.11886C53.3686 7.23384 54.5689 5.583 56.1601 4.16895C57.7353 2.77724 59.5303 1.73114 61.5462 1.03388C63.538 0.34562 65.7188 0 68.0828 0C70.9856 0 73.7255 0.409621 76.2971 1.22622C78.882 2.04714 81.2639 3.27242 83.4382 4.89662L84.6652 5.81285L79.3655 17.0766L77.5587 15.8933C75.745 14.7054 74.0433 13.8203 72.4638 13.2424C70.9509 12.6904 69.5351 12.4134 68.2164 12.4134C66.9626 12.4134 66.0331 12.6521 65.4285 13.1276C65.1774 13.3325 64.9922 13.5498 64.8817 13.7785C64.774 14.0217 64.7153 14.3127 64.7153 14.6512C64.7153 15.4008 64.9646 15.9663 65.4596 16.3403C65.8781 16.6563 66.6074 17.0837 67.6404 17.6179C68.7356 18.1835 70.1628 18.8637 71.9144 19.6518C76.7022 21.7933 80.1588 23.9731 82.278 26.1883C83.4401 27.4055 84.309 28.832 84.8843 30.4652C85.4452 32.0687 85.7267 33.8434 85.7267 35.7952Z" fill="#4B4B4B"/>
<path fill-rule="evenodd" clip-rule="evenodd" d="M20.2233 50.8448H6.33091L17.2145 31.8894H0V19.403H17.8602L6.83304 0.53125H22.168L36.6133 25.2539L21.2838 50.8448H20.2233Z" fill="#ADCE18"/>
</svg>
