<svg width="45" height="45" viewBox="0 0 45 45" fill="none" xmlns="http://www.w3.org/2000/svg">
<rect x="0.0107422" y="0.47168" width="44.1652" height="44.1566" rx="10.4799" fill="#00AADF"/>
<path fill-rule="evenodd" clip-rule="evenodd" d="M32.9463 12.4466L32.9471 12.4463L28.61 32.7989L22.332 28.4638L18.4731 32.2021L18.4728 32.2008L18.7785 25.3355L32.9463 12.4466ZM32.9462 12.4467L32.9467 12.4463L32.9463 12.4466L32.9462 12.4467ZM32.9462 12.4467L17.6816 24.1181L18.4725 32.1997L16.3774 24.3259L10.4902 21.9899L32.9462 12.4467ZM18.4725 32.1997L18.4728 32.2008L18.4727 32.2021L18.4725 32.1997Z" fill="white"/>
<path d="M32.9466 12.4463L18.7784 25.3355L18.4727 32.2021L22.3316 28.4638L28.6095 32.7989L32.9466 12.4463Z" fill="white"/>
</svg>
