<svg width="45" height="45" viewBox="0 0 45 45" fill="none" xmlns="http://www.w3.org/2000/svg">
<rect width="44.1652" height="44.1566" rx="10.4799" fill="#436EAB"/>
<path d="M29.8068 23.796C30.5517 24.5231 31.3379 25.2072 32.0061 26.0077C32.3013 26.3634 32.5806 26.7305 32.7944 27.1433C33.0973 27.7302 32.8229 28.3759 32.2967 28.4109L29.0251 28.4094C28.1813 28.4794 27.5082 28.1398 26.9422 27.563C26.4892 27.1017 26.0697 26.6108 25.6342 26.1339C25.4556 25.9391 25.2688 25.7557 25.0455 25.6107C24.5989 25.3209 24.2112 25.4096 23.956 25.8753C23.696 26.349 23.637 26.8735 23.6115 27.4014C23.5765 28.1716 23.3436 28.3741 22.5698 28.4094C20.916 28.4873 19.3465 28.2372 17.8884 27.4031C16.6029 26.6678 15.6061 25.6297 14.7385 24.4544C13.0493 22.1661 11.7556 19.6514 10.5929 17.0664C10.3312 16.484 10.5226 16.1714 11.1653 16.1603C12.2326 16.1396 13.2997 16.1411 14.3683 16.1588C14.8021 16.1652 15.0892 16.4139 15.2567 16.8236C15.8342 18.2432 16.5407 19.5937 17.4276 20.8456C17.6638 21.1789 17.9046 21.5122 18.2475 21.7468C18.6269 22.0066 18.9158 21.9204 19.0943 21.4979C19.2075 21.2299 19.2571 20.9413 19.2827 20.6544C19.3672 19.6672 19.3784 18.6816 19.2301 17.6978C19.139 17.0838 18.7931 16.6863 18.1803 16.5702C17.8676 16.5109 17.9142 16.3946 18.0656 16.2161C18.3285 15.9084 18.5759 15.7168 19.0689 15.7168H22.7663C23.3484 15.8316 23.4777 16.0931 23.5574 16.6787L23.5605 20.7849C23.5542 21.0115 23.6738 21.6843 24.0821 21.8344C24.409 21.9412 24.6245 21.6797 24.8206 21.4725C25.7058 20.5332 26.3377 19.423 26.9021 18.2734C27.1526 17.7679 27.368 17.243 27.5767 16.7185C27.7314 16.3293 27.9741 16.1378 28.4126 16.1462L31.9711 16.1494C32.0766 16.1494 32.1834 16.1509 32.2855 16.1684C32.8852 16.2706 33.0495 16.5285 32.8643 17.1139C32.5725 18.0324 32.0048 18.7979 31.4496 19.5669C30.8562 20.3878 30.2215 21.1807 29.6329 22.0066C29.0923 22.7608 29.1352 23.1409 29.8068 23.796Z" fill="white"/>
</svg>
